<svg width="51" height="25" viewBox="0 0 51 25" fill="none" xmlns="http://www.w3.org/2000/svg">
<path d="M13.3984 4.5H18.5984V5.5H16.5984V10.9H15.3984V5.5H13.3984V4.5ZM18.2984 6.2H19.2984V7.1C19.2984 7 19.3984 6.9 19.4984 6.7C19.5984 6.5 19.6984 6.5 19.7984 6.4C19.8984 6.3 20.0984 6.2 20.1984 6.2C20.2984 6.1 20.4984 6.1 20.6984 6.1C20.7984 6.1 20.8984 6.1 20.8984 6.1H20.9984V7.1C20.8984 7.1 20.8984 7.1 20.7984 7.1C20.6984 7.1 20.6984 7.1 20.5984 7.1C20.3984 7.1 20.2984 7.1 20.0984 7.2C19.8984 7.3 19.7984 7.4 19.6984 7.5C19.5984 7.6 19.4984 7.8 19.3984 8C19.2984 8.2 19.2984 8.4 19.2984 8.7V10.9H18.2984V6.2ZM25.6984 10.9H24.6984V10.3C24.5984 10.5 24.3984 10.7 24.0984 10.9C23.8984 11 23.5984 11.1 23.2984 11.1C22.6984 11.1 22.2984 11 21.9984 10.6C21.6984 10.2 21.5984 9.8 21.5984 9.2V6.3H22.5984V9.1C22.5984 9.5 22.6984 9.8 22.7984 10C22.9984 10.2 23.1984 10.3 23.4984 10.3C23.6984 10.3 23.8984 10.3 23.9984 10.2C24.0984 10.1 24.2984 10 24.2984 9.9C24.3984 9.8 24.4984 9.7 24.4984 9.5C24.4984 9.3 24.5984 9.2 24.5984 9V6.3H25.5984V10.9H25.6984ZM27.3984 9.4C27.3984 9.7 27.4984 9.9 27.6984 10C27.8984 10.1 28.0984 10.2 28.3984 10.2C28.4984 10.2 28.5984 10.2 28.6984 10.2C28.7984 10.2 28.8984 10.2 28.9984 10.1C29.0984 10.1 29.1984 10 29.2984 9.9C29.3984 9.8 29.3984 9.7 29.3984 9.6C29.3984 9.5 29.2984 9.4 29.2984 9.3C29.1984 9.2 29.0984 9.2 28.9984 9.1C28.8984 9.1 28.6984 9 28.4984 9C28.2984 9 28.0984 8.9 27.9984 8.9C27.7984 8.9 27.5984 8.8 27.4984 8.7C27.3984 8.6 27.1984 8.6 26.9984 8.5C26.8984 8.4 26.6984 8.3 26.6984 8.1C26.5984 7.9 26.5984 7.7 26.5984 7.5C26.5984 7.2 26.6984 7 26.7984 6.9C26.8984 6.8 27.0984 6.6 27.2984 6.5C27.4984 6.4 27.6984 6.3 27.8984 6.3C28.0984 6.3 28.3984 6.2 28.5984 6.2C28.7984 6.2 29.0984 6.2 29.2984 6.3C29.4984 6.3 29.6984 6.4 29.8984 6.5C30.0984 6.6 30.1984 6.8 30.2984 6.9C30.3984 7.1 30.4984 7.3 30.4984 7.6H29.3984C29.3984 7.4 29.1984 7.2 29.0984 7.1C28.7984 7 28.5984 6.9 28.3984 6.9C28.2984 6.9 28.1984 6.9 28.0984 6.9C27.9984 6.9 27.8984 6.9 27.7984 7C27.6984 7 27.5984 7.1 27.5984 7.1C27.4984 7.2 27.4984 7.2 27.4984 7.3C27.4984 7.4 27.4984 7.5 27.5984 7.6C27.6984 7.7 27.7984 7.7 27.8984 7.8C27.9984 7.8 28.1984 7.9 28.3984 7.9C28.5984 7.9 28.7984 8 28.9984 8C29.1984 8 29.3984 8.1 29.4984 8.2C29.6984 8.3 29.7984 8.3 29.9984 8.4C30.1984 8.5 30.2984 8.6 30.2984 8.8C30.3984 9 30.3984 9.1 30.3984 9.4C30.3984 9.7 30.2984 9.9 30.1984 10.1C30.0984 10.3 29.8984 10.4 29.6984 10.6C29.5984 10.8 29.3984 10.9 29.1984 10.9C28.9984 10.9 28.6984 11 28.4984 11C28.1984 11 27.8984 11 27.6984 10.9C27.4984 10.8 27.1984 10.7 27.0984 10.6C26.8984 10.5 26.7984 10.3 26.6984 10.1C26.4984 9.9 26.3984 9.7 26.3984 9.4H27.3984ZM30.7984 6.2H31.5984V4.9H32.5984V6.3H33.4984V7.1H32.5984V9.6C32.5984 9.7 32.5984 9.8 32.5984 9.9C32.5984 10 32.5984 10 32.6984 10.1C32.7984 10.2 32.7984 10.2 32.7984 10.2C32.8984 10.2 32.9984 10.2 33.0984 10.2C33.1984 10.2 33.1984 10.2 33.2984 10.2C33.3984 10.2 33.3984 10.2 33.4984 10.2V10.9C33.3984 10.9 33.2984 10.9 33.1984 10.9C33.0984 10.9 32.9984 10.9 32.8984 10.9C32.5984 10.9 32.3984 10.9 32.2984 10.8C32.0984 10.8 31.9984 10.7 31.8984 10.6C31.7984 10.5 31.6984 10.4 31.6984 10.2C31.6984 10.1 31.5984 9.9 31.5984 9.7V7H30.7984V6.2ZM34.1984 6.2H35.1984V6.9C35.2984 6.6 35.4984 6.4 35.7984 6.3C36.0984 6.2 36.2984 6.1 36.5984 6.1C36.9984 6.1 37.2984 6.2 37.5984 6.3C37.8984 6.4 38.0984 6.6 38.2984 6.8C38.4984 7 38.5984 7.3 38.6984 7.6C38.7984 7.9 38.7984 8.2 38.7984 8.6C38.7984 8.9 38.7984 9.2 38.6984 9.5C38.5984 9.8 38.4984 10 38.2984 10.3C38.0984 10.5 37.8984 10.7 37.6984 10.8C37.3984 10.9 37.1984 11 36.7984 11C36.6984 11 36.4984 11 36.3984 11C36.2984 11 36.0984 10.9 35.9984 10.9C35.8984 10.8 35.6984 10.8 35.5984 10.7C35.4984 10.6 35.3984 10.5 35.2984 10.4V12.7H34.2984V6.2H34.1984ZM37.7984 8.6C37.7984 8.4 37.7984 8.2 37.6984 8C37.5984 7.8 37.5984 7.6 37.4984 7.5C37.3984 7.4 37.2984 7.2 37.0984 7.1C36.8984 7 36.7984 7 36.4984 7C36.0984 7 35.6984 7.1 35.4984 7.4C35.2984 7.7 35.1984 8.1 35.1984 8.6C35.1984 8.8 35.1984 9.1 35.2984 9.2C35.3984 9.4 35.3984 9.6 35.5984 9.7C35.6984 9.8 35.7984 10 35.9984 10C36.1984 10.1 36.2984 10.1 36.4984 10.1C36.6984 10.1 36.8984 10.1 37.0984 10C37.2984 9.9 37.3984 9.8 37.4984 9.6C37.5984 9.4 37.6984 9.3 37.6984 9.1C37.6984 9 37.7984 8.8 37.7984 8.6ZM39.5984 4.5H40.5984V5.5H39.5984V4.5ZM39.5984 6.2H40.5984V10.9H39.5984V6.2ZM41.4984 4.5H42.4984V10.9H41.4984V4.5ZM45.5984 11C45.1984 11 44.8984 10.9 44.5984 10.8C44.2984 10.7 44.0984 10.5 43.8984 10.3C43.6984 10.1 43.4984 9.8 43.3984 9.5C43.2984 9.2 43.1984 8.9 43.1984 8.5C43.1984 8.1 43.2984 7.8 43.3984 7.5C43.4984 7.2 43.6984 6.9 43.8984 6.7C44.0984 6.5 44.2984 6.3 44.5984 6.2C44.8984 6.1 45.1984 6 45.5984 6C45.9984 6 46.2984 6.1 46.5984 6.2C46.8984 6.3 47.0984 6.5 47.2984 6.7C47.4984 6.9 47.6984 7.2 47.7984 7.5C47.8984 7.8 47.9984 8.1 47.9984 8.5C47.9984 8.9 47.8984 9.2 47.7984 9.5C47.6984 9.8 47.4984 10.1 47.2984 10.3C47.0984 10.5 46.8984 10.7 46.5984 10.8C46.2984 10.9 45.9984 11 45.5984 11ZM45.5984 10.2C45.7984 10.2 45.9984 10.2 46.1984 10.1C46.3984 10 46.4984 9.9 46.5984 9.7C46.6984 9.5 46.7984 9.4 46.7984 9.2C46.7984 9 46.8984 8.8 46.8984 8.6C46.8984 8.4 46.8984 8.2 46.7984 8C46.7984 7.8 46.6984 7.6 46.5984 7.5C46.4984 7.4 46.3984 7.2 46.1984 7.1C45.9984 7 45.7984 7 45.5984 7C45.3984 7 45.1984 7 44.9984 7.1C44.7984 7.2 44.6984 7.3 44.5984 7.5C44.4984 7.7 44.3984 7.8 44.3984 8C44.3984 8.2 44.2984 8.4 44.2984 8.6C44.2984 8.8 44.2984 9 44.3984 9.2C44.3984 9.4 44.4984 9.6 44.5984 9.7C44.6984 9.9 44.7984 10 44.9984 10.1C45.1984 10.1 45.3984 10.2 45.5984 10.2ZM48.2984 6.2H49.0984V4.9H50.0984V6.3H50.9984V7.1H50.0984V9.6C50.0984 9.7 50.0984 9.8 50.0984 9.9C50.0984 10 50.0984 10 50.1984 10.1C50.2984 10.2 50.2984 10.2 50.2984 10.2C50.3984 10.2 50.4984 10.2 50.5984 10.2C50.6984 10.2 50.6984 10.2 50.7984 10.2C50.8984 10.2 50.8984 10.2 50.9984 10.2V10.9C50.8984 10.9 50.7984 10.9 50.6984 10.9C50.5984 10.9 50.4984 10.9 50.3984 10.9C50.0984 10.9 49.8984 10.9 49.7984 10.8C49.5984 10.8 49.4984 10.7 49.3984 10.6C49.2984 10.5 49.1984 10.4 49.1984 10.2C49.1984 10.1 49.0984 9.9 49.0984 9.7V7H48.2984V6.2Z" fill="#191919"/>
<path d="M12.2 4.5H7.5L6.1 0L4.6 4.5H0L3.7 7.2L2.3 11.7L6.1 8.9L9.8 11.7L8.4 7.2L12.2 4.5Z" fill="#00B67A"/>
<path d="M8.70156 8.19922L8.40156 7.19922L6.10156 8.89922L8.70156 8.19922Z" fill="#005128"/>
<path d="M9.6 14.5H0V24.1H9.6V14.5Z" fill="#00B67A"/>
<path d="M19.9008 14.5H10.3008V24.1H19.9008V14.5Z" fill="#00B67A"/>
<path d="M30.2992 14.5H20.6992V24.1H30.2992V14.5Z" fill="#00B67A"/>
<path d="M40.6 14.5H31V24.1H40.6V14.5Z" fill="#00B67A"/>
<path d="M50.9984 14.5H41.3984V24.1H50.9984V14.5Z" fill="#DCDCE6"/>
<path d="M41.3984 14.5H46.1984V24H41.3984V14.5Z" fill="#00B67A"/>
<path d="M4.69844 20.9016L6.19844 20.5016L6.79844 22.4016L4.69844 20.9016ZM8.09844 18.5016H5.49844L4.69844 16.1016L3.89844 18.5016H1.39844L3.49844 20.0016L2.69844 22.4016L4.79844 20.9016L6.09844 20.0016L8.09844 18.5016Z" fill="white"/>
<path d="M15.1016 20.9016L16.6016 20.5016L17.2016 22.4016L15.1016 20.9016ZM18.4016 18.5016H15.8016L15.0016 16.1016L14.2016 18.5016H11.6016L13.7016 20.0016L12.9016 22.4016L15.0016 20.9016L16.3016 20.0016L18.4016 18.5016Z" fill="white"/>
<path d="M25.5 20.9016L27 20.5016L27.6 22.4016L25.5 20.9016ZM28.8 18.5016H26.2L25.4 16.1016L24.6 18.5016H22L24.1 20.0016L23.4 22.4016L25.5 20.9016L26.8 20.0016L28.8 18.5016Z" fill="white"/>
<path d="M35.7984 20.9016L37.2984 20.5016L37.8984 22.4016L35.7984 20.9016ZM39.1984 18.5016H36.5984L35.7984 16.1016L34.9984 18.5016H32.3984L34.4984 20.0016L33.6984 22.4016L35.7984 20.9016L37.0984 20.0016L39.1984 18.5016Z" fill="white"/>
<path d="M46.2008 20.9016L47.7008 20.5016L48.3008 22.4016L46.2008 20.9016ZM49.5008 18.5016H46.9008L46.1008 16.1016L45.4008 18.5016H42.8008L44.9008 20.0016L44.1008 22.4016L46.2008 20.9016L47.5008 20.0016L49.5008 18.5016Z" fill="white"/>
</svg>
